<svg width="280" height="140" viewBox="0 0 280 140" fill="none" xmlns="http://www.w3.org/2000/svg">
<g clip-path="url(#clip0_248_7848)">
<path d="M17.4854 8.7417H-0.0170898V26.2442V43.7469V61.249V78.7515V96.2535V113.756V131.259H17.4854V113.756V96.2535V78.7515V61.249V43.7469V26.2442V8.7417Z" fill="#1F35F9"/>
<path fill-rule="evenodd" clip-rule="evenodd" d="M52.4894 26.2444H69.9919H87.4932V43.7469H69.9919H52.4894V26.2444ZM87.4932 96.2535L104.996 96.2539V78.7515V61.2494V43.7469L87.4932 43.7469L87.4936 61.2494L69.9919 61.249H52.4894L52.4898 78.7515H42.726H34.9873V96.2539H52.4898L52.4894 113.756H69.9907H87.4932V96.2535ZM69.9907 96.2535L52.4898 96.2539V78.7515H69.9919H87.4936L87.4932 96.2535H69.9907Z" fill="black"/>
<path d="M157.501 26.2444H175.004L175.005 43.7469L157.501 43.7469L139.999 43.7469L139.997 61.249H157.5H175.004V78.7515H157.5H139.997L139.999 96.2539L157.501 96.2535H175.004V113.756H157.501H139.999H122.496V96.2539V78.7515V61.2494V43.7469V26.2444H139.999H157.501ZM175.004 96.2535V78.7515H192.507V96.2539L175.004 96.2535ZM175.004 61.249L175.005 43.7469H192.507V61.2494L175.004 61.249Z" fill="black"/>
<path d="M227.51 26.2444H210.007V43.7469V61.2494V78.7515V96.2539V113.756H227.51H245.013H262.515L262.515 96.2539H280.018V78.7515V61.2494V43.7469H262.515L262.515 26.2444H245.013H227.51ZM262.515 43.7469V61.2494V78.7515V96.2539L245.013 96.2535L227.51 96.2539V78.7515V61.2494V43.7469L245.013 43.7469L262.515 43.7469Z" fill="black"/>
</g>
<defs>
<clipPath id="clip0_248_7848">
<rect width="280" height="140" fill="white"/>
</clipPath>
</defs>
</svg>
