<svg width="147" height="23" viewBox="0 0 147 23" fill="none" xmlns="http://www.w3.org/2000/svg">
<path d="M64.0986 12.5674L66.9307 4.86328H69.498L63.1621 22.1426H60.5947L64.0059 12.8975H61.6904L58.9385 4.86328H61.4824L64.0986 12.5674ZM133.603 6.27246H131.291L131.766 6.62402L133.603 7.8584V17.7988C133.603 20.1747 131.683 22.1424 129.283 22.1426H127.363C124.987 22.1426 123.043 20.1748 123.043 17.7988H125.443C125.443 18.8548 126.307 19.7188 127.363 19.7188H129.283C130.339 19.7186 131.203 18.8547 131.203 17.7988V15.7588L129.211 17.1035H127.363C124.987 17.1035 123.043 15.1591 123.043 12.7832V9.18262C123.043 6.78281 124.987 4.86328 127.363 4.86328H129.211L131.16 6.17773V3.8291H133.603V6.27246ZM10.0898 14.6562H7.64258V17.1035H2.74805V14.6562H7.64258V12.209H2.74805V9.76172H7.64258V7.31445H10.0898V14.6562ZM22.5732 6.71094L25.2852 4.86328H25.9805C28.1883 4.86328 30.0125 6.78281 30.0127 9.18262V10.1426H27.6133V9.18262C27.6131 8.12681 26.9403 7.2627 25.9805 7.2627H25.7646L22.5732 9.39941V17.1035H20.1729V4.86328H22.5732V6.71094ZM37.29 4.86328C39.6899 4.86328 41.6101 6.78281 41.6104 9.18262V12.8066C41.6104 15.2066 39.69 17.1035 37.29 17.1035H35.3701C32.9702 17.1034 31.0508 15.2066 31.0508 12.8066V9.18262C31.051 6.78287 32.9703 4.86337 35.3701 4.86328H37.29ZM82.3105 2.44336H77.4238V14.6602H82.3105V17.1035H74.9805V0H82.3105V2.44336ZM94.8633 4.86328C97.1913 4.86328 99.0636 6.66336 99.1836 8.94336V11.5352H91.0234V12.7588C91.0234 13.8147 91.8874 14.6786 92.9434 14.6787H94.8633C95.9193 14.6787 96.7832 13.8148 96.7832 12.7588V12.5186H99.1836V12.7588C99.1836 15.1348 97.2633 17.1035 94.8633 17.1035H92.9434C90.5674 17.1034 88.624 15.1347 88.624 12.7588V9.18262C88.6243 6.78287 90.5676 4.86338 92.9434 4.86328H94.8633ZM106.749 4.86328C108.909 4.86328 110.589 6.42345 110.589 8.43945V8.65527H108.189V8.43945C108.189 7.67145 107.589 7.09473 106.749 7.09473H104.686C103.678 7.09473 103.245 7.50352 103.245 8.10352C103.246 10.0468 110.997 8.82349 110.997 13.7188C110.997 15.7348 109.341 17.1035 106.917 17.1035H104.733C102.405 17.1035 100.678 15.5908 100.678 13.5508V13.0713H103.077V13.5508C103.077 14.3188 103.701 14.8711 104.733 14.8711H106.917C108.045 14.8711 108.598 14.4147 108.598 13.7188C108.597 11.0073 100.846 12.7588 100.846 8.10352C100.846 6.15952 102.406 4.86328 104.686 4.86328H106.749ZM118.653 14.7031H122.613V17.1035H112.293V14.7031H116.253V7.2627H112.293V4.86328H118.653V14.7031ZM142.383 4.86328C144.759 4.86333 146.703 6.78285 146.703 9.18262V17.1035H144.303V9.18262C144.303 8.12684 143.439 7.26275 142.383 7.2627H141.278L138.543 9.03906V17.1035H136.143V7.84082L138.543 6.26562L140.535 4.86328H142.383ZM18.7705 7.9834H14.5703V17.1025H12.1709V7.9834H14.5703V5.58301H18.7705V7.9834ZM50.0312 6.20703L52.0225 4.86328H53.8711C56.2469 4.86341 58.1902 6.78287 58.1904 9.18262V12.7832C58.1903 15.159 56.2469 17.1024 53.8711 17.1025H52.0225L50.0312 15.7588V17.1025H47.6309V0.0634766H50.0312V6.20703ZM35.3701 7.2627C34.2903 7.26279 33.4504 8.10288 33.4502 9.18262V12.8066C33.4502 13.8866 34.2902 14.679 35.3701 14.7031H37.29C38.37 14.7031 39.21 13.8866 39.21 12.8066V9.18262C39.2097 8.10282 38.3699 7.2627 37.29 7.2627H35.3701ZM50.0312 9.11133V12.8555L52.7666 14.7031H53.8711C54.9269 14.703 55.7909 13.839 55.791 12.7832V9.18262C55.7908 8.12687 54.9269 7.26282 53.8711 7.2627H52.7666L50.0312 9.11133ZM127.363 7.2627C126.307 7.2627 125.444 8.12681 125.443 9.18262V12.7832C125.443 13.8391 126.307 14.7031 127.363 14.7031H128.467L131.203 12.8555V9.11133L128.467 7.2627H127.363ZM84.7539 14.6602H82.3105V12.2168H84.7539V14.6602ZM2.74805 14.6562H0.300781V12.209H2.74805V14.6562ZM87.1973 12.2168H84.7539V9.77344H84.7549V7.3457H84.7539V4.90234H87.1973V12.2168ZM92.9434 7.2627C91.8636 7.26279 91.0237 8.12687 91.0234 9.18262V9.61523H96.7832V9.18262C96.783 8.10282 95.9431 7.2627 94.8633 7.2627H92.9434ZM7.64258 7.31445H2.74805V4.86719H7.64258V7.31445ZM18.7705 2.46289H16.4902C15.4104 2.46298 14.5704 3.30296 14.5703 4.38281V5.58301H12.1709V4.38281C12.171 1.98295 14.0904 0.0635702 16.4902 0.0634766H18.7705V2.46289ZM84.7539 4.90234H82.3105V2.45898H84.7539V4.90234ZM118.653 2.44336H116.21V0H118.653V2.44336Z" fill="#1F35F9"/>
</svg>
