<svg width="16" height="16" viewBox="0 0 16 16" fill="none" xmlns="http://www.w3.org/2000/svg">
<path fill-rule="evenodd" clip-rule="evenodd" d="M4.17502 11.8245C4.28752 11.9369 4.44002 12 4.59902 12C4.75802 12 4.91052 11.9369 5.02302 11.8245L10.799 6.04853L10.799 10.6005C10.799 10.7597 10.8622 10.9123 10.9748 11.0248C11.0873 11.1373 11.2399 11.2005 11.399 11.2005C11.5582 11.2005 11.7108 11.1373 11.8233 11.0248C11.9358 10.9123 11.999 10.7597 11.999 10.6005L11.999 4.60053C11.999 4.26933 11.7302 4.00053 11.399 4.00053L5.39902 4.00053C5.23989 4.00053 5.08728 4.06374 4.97476 4.17626C4.86224 4.28878 4.79902 4.4414 4.79902 4.60053C4.79902 4.75966 4.86224 4.91227 4.97476 5.02479C5.08728 5.13731 5.23989 5.20053 5.39902 5.20053L9.95102 5.20053L4.17502 10.9765C4.06266 11.089 3.99955 11.2415 3.99955 11.4005C3.99955 11.5595 4.06266 11.712 4.17502 11.8245Z" fill="black"/>
</svg>
