<svg width="140" height="172" viewBox="0 0 140 172" fill="none" xmlns="http://www.w3.org/2000/svg">
<path d="M99.916 1.87256C103.782 1.87275 106.916 5.00672 106.916 8.87256V33.1782H131.223C135.088 33.1785 138.222 36.3126 138.223 40.1782V132.096C138.223 135.842 135.281 138.9 131.582 139.087L131.222 139.096H106.916V163.402C106.916 167.268 103.782 170.402 99.916 170.402H39.3057C35.4397 170.402 32.3057 167.268 32.3057 163.402V139.096H7.99902C4.13304 139.096 0.999023 135.962 0.999023 132.096V102.791C0.999023 98.9245 4.13304 95.7905 7.99902 95.7905H32.3057V71.4849C32.3057 67.6189 35.4397 64.4849 39.3057 64.4849H94.916V45.1782H39.3057C35.4397 45.1782 32.3057 42.0442 32.3057 38.1782V8.87256C32.3057 5.00657 35.4397 1.87256 39.3057 1.87256H99.916ZM100.916 69.4849C100.916 70.0371 100.468 70.4849 99.916 70.4849H39.3057C38.7534 70.4849 38.3057 70.9326 38.3057 71.4849V101.791H7.99902C7.44674 101.791 6.99902 102.238 6.99902 102.791V132.096C6.99902 132.648 7.44674 133.096 7.99902 133.096H38.3057V163.402C38.3057 163.954 38.7534 164.402 39.3057 164.402H99.916C100.468 164.402 100.916 163.954 100.916 163.402V133.096H131.222C131.774 133.096 132.223 132.648 132.223 132.096V40.1782C132.222 39.6263 131.775 39.1785 131.223 39.1782H100.916V69.4849ZM99.916 101.791C100.468 101.791 100.916 102.238 100.916 102.791V133.096H38.3057V101.791H99.916ZM44.3057 127.096H94.916V107.791H44.3057V127.096ZM39.3057 7.87256C38.7534 7.87256 38.3057 8.32027 38.3057 8.87256V38.1782C38.3057 38.7305 38.7534 39.1782 39.3057 39.1782H100.916V8.87256C100.916 8.3204 100.468 7.87275 99.916 7.87256H39.3057Z" fill="white"/>
<path d="M99.916 1.37256L100.302 1.38232C104.264 1.58327 107.416 4.85994 107.416 8.87256V32.6782H131.223L131.608 32.688C135.571 32.889 138.722 36.1658 138.723 40.1782V132.096C138.723 136.109 135.571 139.386 131.607 139.586L131.594 139.587L131.233 139.596H107.416V163.402C107.416 167.415 104.264 170.691 100.302 170.892L99.916 170.902H39.3057C35.1635 170.902 31.8057 167.544 31.8057 163.402V139.596H7.99902C3.85689 139.596 0.499023 136.238 0.499023 132.096V102.791C0.499023 98.6484 3.8569 95.2905 7.99902 95.2905H31.8057V71.4849C31.8057 67.3427 35.1635 63.9849 39.3057 63.9849H94.416V45.6782H39.3057C35.1635 45.6782 31.8057 42.3203 31.8057 38.1782V8.87256C31.8057 4.73042 35.1635 1.37256 39.3057 1.37256H99.916ZM38.8057 163.402C38.8057 163.678 39.0295 163.902 39.3057 163.902H99.916L100.017 163.892C100.245 163.845 100.416 163.643 100.416 163.402V133.596H38.8057V163.402ZM101.416 69.4849L101.408 69.6382C101.331 70.3945 100.693 70.9849 99.916 70.9849H39.3057C39.0295 70.9849 38.8057 71.2087 38.8057 71.4849V101.291H99.916C100.744 101.291 101.416 101.963 101.416 102.791V132.596H131.222L131.322 132.586C131.551 132.54 131.723 132.337 131.723 132.096V40.1782L131.713 40.0776C131.673 39.8824 131.518 39.7281 131.323 39.688L131.223 39.6782H101.416V69.4849ZM7.89844 102.3C7.67047 102.347 7.49902 102.549 7.49902 102.791V132.096C7.49902 132.372 7.72288 132.596 7.99902 132.596H37.8057V102.291H7.99902L7.89844 102.3ZM44.8057 126.596H94.416V108.291H44.8057V126.596ZM39.3057 8.37256C39.0295 8.37256 38.8057 8.59642 38.8057 8.87256V38.1782C38.8057 38.4544 39.0295 38.6782 39.3057 38.6782H100.416V8.87256L100.406 8.77197C100.366 8.57669 100.212 8.42234 100.017 8.38232L99.916 8.37256H39.3057Z" stroke="black" stroke-opacity="0.2"/>
<path fill-rule="evenodd" clip-rule="evenodd" d="M100.916 39.1787V69.4848C100.916 70.0371 100.468 70.4848 99.9161 70.4848H39.3055C38.7533 70.4848 38.3055 70.9325 38.3055 71.4848V101.791L7.99904 101.79C7.44675 101.79 6.99902 102.238 6.99902 102.79V132.097C6.99902 132.649 7.44675 133.097 7.99904 133.097L38.3055 133.096V163.402C38.3055 163.955 38.7533 164.402 39.3055 164.402H99.9157C100.468 164.402 100.916 163.955 100.916 163.402V133.096L131.222 133.097C131.774 133.097 132.222 132.649 132.222 132.097V40.1787C132.222 39.6264 131.774 39.1787 131.222 39.1787H100.916L100.916 8.87255C100.916 8.32027 100.468 7.87256 99.9157 7.87256H39.3055C38.7533 7.87256 38.3055 8.32027 38.3055 8.87256V38.1787C38.3055 38.7309 38.7533 39.1787 39.3055 39.1787H100.916ZM38.3055 133.096V101.791H99.9161C100.468 101.791 100.916 102.239 100.916 102.791L100.916 133.096H38.3055Z" fill="#1F35F9"/>
</svg>
