<svg width="96" height="96" viewBox="0 0 96 96" fill="none" xmlns="http://www.w3.org/2000/svg">
<g filter="url(#filter0_ii_182_323)">
<g filter="url(#filter1_dd_182_323)">
<path d="M49.4834 72.3733C49.0127 72.9533 48.5084 73.5166 48.2058 73.8314C48.0377 73.9971 47.752 73.8314 47.836 73.616C47.9873 73.2018 48.1386 72.7876 48.2899 72.3568C48.811 70.8158 49.3321 68.5293 49.6346 67.0878C49.7859 66.3421 49.3321 65.6131 48.5924 65.4143C47.8024 65.1989 46.9787 65.6794 46.8106 66.4747C46.1046 69.6063 45.1801 72.423 44.0539 74.7593C43.9194 75.041 43.4823 74.9416 43.4823 74.6267V38.6384C45.0456 38.5887 46.6089 38.4396 48.1722 38.2242C48.3739 40.0965 48.5084 42.002 48.5756 43.9406C48.6093 44.6531 49.1304 45.2495 49.8532 45.3655H49.8868C50.8113 45.5147 51.635 44.8022 51.6014 43.8743C51.5173 41.8363 51.366 39.7651 51.1307 37.6774C52.5595 37.3626 53.9883 36.9649 55.4171 36.501C56.4593 40.4279 56.7619 44.5702 56.8292 46.1111C56.846 46.4757 57.0981 46.7905 57.4679 46.8733C57.6528 46.923 57.8041 46.9562 57.9554 47.0059C58.9304 47.2876 59.9053 46.5254 59.8549 45.5147C59.6532 41.6209 59.0312 37.8928 58.0058 34.4299C58.0058 34.2807 57.9722 34.1316 57.905 33.9825C57.8714 33.9162 57.8377 33.8334 57.8041 33.7671C55.0473 24.8197 49.7019 17.695 42.6923 14.1823C42.5914 14.1326 42.4906 14.0829 42.3897 14.0663C42.2552 14.0332 42.1208 14.0166 41.9695 14.0166C41.835 14.0166 41.6837 14.0332 41.5492 14.0829C41.4484 14.116 41.3475 14.1492 41.2467 14.1989C34.237 17.695 28.8916 24.8197 26.118 33.7671C26.0676 33.8334 26.034 33.9162 26.0003 33.9991C25.9499 34.1316 25.9163 34.2807 25.9163 34.4299C24.6892 38.6219 24.0168 43.195 24 47.9669V48C24 48.1657 24 48.3149 24 48.464C24.0672 63.8568 30.6902 76.6316 41.2467 81.8178C41.3475 81.8675 41.4484 81.9006 41.5492 81.9338C41.6837 81.9669 41.8182 81.9835 41.9527 81.9835C42.0871 81.9835 42.2384 81.9669 42.3729 81.9172C42.4738 81.8841 42.5746 81.8509 42.6587 81.8012C45.4491 80.426 47.9705 78.5371 50.1557 76.1843C50.4919 75.8197 50.8281 75.4386 51.1307 75.1073C51.7863 74.3616 51.8703 73.2846 51.3324 72.4562C50.9122 71.7934 49.954 71.7437 49.4497 72.3568L49.4834 72.3733ZM48.189 22.2681C50.8113 25.234 52.9293 28.962 54.4086 33.1872C54.4926 33.4191 54.3581 33.6677 54.1396 33.734C53.1647 34.0488 52.1897 34.3139 51.2147 34.5624C50.9794 34.6287 50.7273 34.463 50.6936 34.2145C50.0717 30.0225 49.1304 25.9796 47.8024 22.4835C47.7183 22.2515 48.0209 22.0858 48.189 22.2681ZM43.4991 21.3899C43.4991 21.0917 43.9026 21.0088 44.037 21.2739C45.7516 24.8694 46.9955 29.5917 47.7688 34.811C47.8024 35.0429 47.6343 35.2583 47.399 35.2915C46.2559 35.4572 45.0961 35.5566 43.9362 35.6063C43.7009 35.6063 43.4991 35.4406 43.4991 35.2086V21.3899ZM29.5135 33.154C30.976 29.0117 33.0268 25.3499 35.5818 22.4172C35.7667 22.2018 36.1365 22.4172 36.0357 22.6657C34.7581 26.0956 33.8504 30.0556 33.2285 34.1482C33.1949 34.3967 32.9427 34.5624 32.7074 34.4961C31.7324 34.2642 30.7743 33.9991 29.7993 33.7008C29.564 33.6345 29.4295 33.3694 29.5135 33.1375V33.154ZM28.3873 36.9318C28.4545 36.6833 28.7235 36.5341 28.9756 36.617C30.1187 36.9649 31.2617 37.2798 32.388 37.5449C32.6065 37.5946 32.7578 37.81 32.741 38.0254C32.4552 40.7427 32.3039 43.4435 32.2367 46.0449C32.2367 46.2934 32.0182 46.4922 31.766 46.4922H27.5636C27.2947 46.4922 27.0762 46.2768 27.093 46.0117C27.2274 42.847 27.6813 39.7983 28.3873 36.9318ZM28.2696 59.118C27.6141 56.3343 27.1938 53.2856 27.0762 49.9386C27.0762 49.7067 27.2611 49.5078 27.4964 49.5078H31.8165C32.0518 49.5078 32.2367 49.6901 32.2367 49.9055C32.2871 52.5234 32.4384 55.2573 32.7074 57.9747C32.7242 58.1735 32.5897 58.3724 32.388 58.4221C31.1945 58.7037 30.001 59.0351 28.8075 59.4162C28.5722 59.4991 28.3201 59.3665 28.2528 59.118H28.2696ZM35.6827 73.7817C33.1612 70.9981 30.9256 67.386 29.3623 62.8626C29.2782 62.6306 29.4127 62.3655 29.648 62.2993C30.6398 61.9679 31.6484 61.6862 32.6569 61.4377C32.9091 61.3714 33.1444 61.5371 33.178 61.7856C33.8 65.9776 34.7413 70.0371 36.0693 73.5332C36.1533 73.7652 35.8508 73.9474 35.6827 73.7652V73.7817ZM40.4398 74.577C40.4398 74.8919 39.9859 75.0078 39.8515 74.7096C38.1201 71.0975 36.893 66.3421 36.1365 61.0897C36.1197 60.924 36.2374 60.7583 36.4055 60.7252C37.6326 60.5429 38.8765 60.4435 40.1204 60.3772C40.2885 60.3772 40.4398 60.5098 40.4398 60.6755V74.577ZM40.4398 56.9308C40.4398 57.1628 40.2549 57.3616 40.0027 57.3782C38.7252 57.4279 37.4477 57.5439 36.187 57.7262C35.9348 57.7593 35.6995 57.5936 35.6827 57.3451C35.4473 54.9425 35.3129 52.4572 35.2624 49.9718C35.2624 49.7232 35.4641 49.5078 35.7163 49.5078H39.9859C40.2381 49.5078 40.4398 49.7067 40.4398 49.9552V56.9308ZM40.4398 46.0449C40.4398 46.2934 40.2381 46.4922 39.9859 46.4922H35.7331C35.481 46.4922 35.2624 46.2768 35.2792 46.0283C35.3297 43.5264 35.481 41.041 35.7163 38.6384C35.7331 38.3899 35.9684 38.2076 36.2206 38.2408C37.4813 38.423 38.7588 38.539 40.0196 38.6053C40.2549 38.6053 40.4566 38.8041 40.4566 39.0527V46.0449H40.4398ZM40.0027 35.5897C38.8597 35.5234 37.7166 35.4074 36.5568 35.2417C36.3214 35.2086 36.1533 34.9766 36.187 34.7447C36.9434 29.5917 38.1705 24.9191 39.8683 21.3402C40.0027 21.0585 40.4398 21.1579 40.4398 21.4727V35.1589C40.4398 35.3909 40.2381 35.5897 40.0027 35.5731V35.5897Z" fill="url(#paint0_linear_182_323)" shape-rendering="crispEdges"/>
<path d="M49.4834 72.3733C49.0127 72.9533 48.5084 73.5166 48.2058 73.8314C48.0377 73.9971 47.752 73.8314 47.836 73.616C47.9873 73.2018 48.1386 72.7876 48.2899 72.3568C48.811 70.8158 49.3321 68.5293 49.6346 67.0878C49.7859 66.3421 49.3321 65.6131 48.5924 65.4143C47.8024 65.1989 46.9787 65.6794 46.8106 66.4747C46.1046 69.6063 45.1801 72.423 44.0539 74.7593C43.9194 75.041 43.4823 74.9416 43.4823 74.6267V38.6384C45.0456 38.5887 46.6089 38.4396 48.1722 38.2242C48.3739 40.0965 48.5084 42.002 48.5756 43.9406C48.6093 44.6531 49.1304 45.2495 49.8532 45.3655H49.8868C50.8113 45.5147 51.635 44.8022 51.6014 43.8743C51.5173 41.8363 51.366 39.7651 51.1307 37.6774C52.5595 37.3626 53.9883 36.9649 55.4171 36.501C56.4593 40.4279 56.7619 44.5702 56.8292 46.1111C56.846 46.4757 57.0981 46.7905 57.4679 46.8733C57.6528 46.923 57.8041 46.9562 57.9554 47.0059C58.9304 47.2876 59.9053 46.5254 59.8549 45.5147C59.6532 41.6209 59.0312 37.8928 58.0058 34.4299C58.0058 34.2807 57.9722 34.1316 57.905 33.9825C57.8714 33.9162 57.8377 33.8334 57.8041 33.7671C55.0473 24.8197 49.7019 17.695 42.6923 14.1823C42.5914 14.1326 42.4906 14.0829 42.3897 14.0663C42.2552 14.0332 42.1208 14.0166 41.9695 14.0166C41.835 14.0166 41.6837 14.0332 41.5492 14.0829C41.4484 14.116 41.3475 14.1492 41.2467 14.1989C34.237 17.695 28.8916 24.8197 26.118 33.7671C26.0676 33.8334 26.034 33.9162 26.0003 33.9991C25.9499 34.1316 25.9163 34.2807 25.9163 34.4299C24.6892 38.6219 24.0168 43.195 24 47.9669V48C24 48.1657 24 48.3149 24 48.464C24.0672 63.8568 30.6902 76.6316 41.2467 81.8178C41.3475 81.8675 41.4484 81.9006 41.5492 81.9338C41.6837 81.9669 41.8182 81.9835 41.9527 81.9835C42.0871 81.9835 42.2384 81.9669 42.3729 81.9172C42.4738 81.8841 42.5746 81.8509 42.6587 81.8012C45.4491 80.426 47.9705 78.5371 50.1557 76.1843C50.4919 75.8197 50.8281 75.4386 51.1307 75.1073C51.7863 74.3616 51.8703 73.2846 51.3324 72.4562C50.9122 71.7934 49.954 71.7437 49.4497 72.3568L49.4834 72.3733ZM48.189 22.2681C50.8113 25.234 52.9293 28.962 54.4086 33.1872C54.4926 33.4191 54.3581 33.6677 54.1396 33.734C53.1647 34.0488 52.1897 34.3139 51.2147 34.5624C50.9794 34.6287 50.7273 34.463 50.6936 34.2145C50.0717 30.0225 49.1304 25.9796 47.8024 22.4835C47.7183 22.2515 48.0209 22.0858 48.189 22.2681ZM43.4991 21.3899C43.4991 21.0917 43.9026 21.0088 44.037 21.2739C45.7516 24.8694 46.9955 29.5917 47.7688 34.811C47.8024 35.0429 47.6343 35.2583 47.399 35.2915C46.2559 35.4572 45.0961 35.5566 43.9362 35.6063C43.7009 35.6063 43.4991 35.4406 43.4991 35.2086V21.3899ZM29.5135 33.154C30.976 29.0117 33.0268 25.3499 35.5818 22.4172C35.7667 22.2018 36.1365 22.4172 36.0357 22.6657C34.7581 26.0956 33.8504 30.0556 33.2285 34.1482C33.1949 34.3967 32.9427 34.5624 32.7074 34.4961C31.7324 34.2642 30.7743 33.9991 29.7993 33.7008C29.564 33.6345 29.4295 33.3694 29.5135 33.1375V33.154ZM28.3873 36.9318C28.4545 36.6833 28.7235 36.5341 28.9756 36.617C30.1187 36.9649 31.2617 37.2798 32.388 37.5449C32.6065 37.5946 32.7578 37.81 32.741 38.0254C32.4552 40.7427 32.3039 43.4435 32.2367 46.0449C32.2367 46.2934 32.0182 46.4922 31.766 46.4922H27.5636C27.2947 46.4922 27.0762 46.2768 27.093 46.0117C27.2274 42.847 27.6813 39.7983 28.3873 36.9318ZM28.2696 59.118C27.6141 56.3343 27.1938 53.2856 27.0762 49.9386C27.0762 49.7067 27.2611 49.5078 27.4964 49.5078H31.8165C32.0518 49.5078 32.2367 49.6901 32.2367 49.9055C32.2871 52.5234 32.4384 55.2573 32.7074 57.9747C32.7242 58.1735 32.5897 58.3724 32.388 58.4221C31.1945 58.7037 30.001 59.0351 28.8075 59.4162C28.5722 59.4991 28.3201 59.3665 28.2528 59.118H28.2696ZM35.6827 73.7817C33.1612 70.9981 30.9256 67.386 29.3623 62.8626C29.2782 62.6306 29.4127 62.3655 29.648 62.2993C30.6398 61.9679 31.6484 61.6862 32.6569 61.4377C32.9091 61.3714 33.1444 61.5371 33.178 61.7856C33.8 65.9776 34.7413 70.0371 36.0693 73.5332C36.1533 73.7652 35.8508 73.9474 35.6827 73.7652V73.7817ZM40.4398 74.577C40.4398 74.8919 39.9859 75.0078 39.8515 74.7096C38.1201 71.0975 36.893 66.3421 36.1365 61.0897C36.1197 60.924 36.2374 60.7583 36.4055 60.7252C37.6326 60.5429 38.8765 60.4435 40.1204 60.3772C40.2885 60.3772 40.4398 60.5098 40.4398 60.6755V74.577ZM40.4398 56.9308C40.4398 57.1628 40.2549 57.3616 40.0027 57.3782C38.7252 57.4279 37.4477 57.5439 36.187 57.7262C35.9348 57.7593 35.6995 57.5936 35.6827 57.3451C35.4473 54.9425 35.3129 52.4572 35.2624 49.9718C35.2624 49.7232 35.4641 49.5078 35.7163 49.5078H39.9859C40.2381 49.5078 40.4398 49.7067 40.4398 49.9552V56.9308ZM40.4398 46.0449C40.4398 46.2934 40.2381 46.4922 39.9859 46.4922H35.7331C35.481 46.4922 35.2624 46.2768 35.2792 46.0283C35.3297 43.5264 35.481 41.041 35.7163 38.6384C35.7331 38.3899 35.9684 38.2076 36.2206 38.2408C37.4813 38.423 38.7588 38.539 40.0196 38.6053C40.2549 38.6053 40.4566 38.8041 40.4566 39.0527V46.0449H40.4398ZM40.0027 35.5897C38.8597 35.5234 37.7166 35.4074 36.5568 35.2417C36.3214 35.2086 36.1533 34.9766 36.187 34.7447C36.9434 29.5917 38.1705 24.9191 39.8683 21.3402C40.0027 21.0585 40.4398 21.1579 40.4398 21.4727V35.1589C40.4398 35.3909 40.2381 35.5897 40.0027 35.5731V35.5897Z" stroke="black" stroke-opacity="0.1" shape-rendering="crispEdges"/>
</g>
<g filter="url(#filter2_dd_182_323)">
<path d="M76.7989 57.2125C67.6713 52.8714 58.6614 49.8558 49.7691 48.3811C48.5756 48.1823 47.5334 49.2096 47.7351 50.4025C49.4161 59.8801 52.425 68.8606 56.7619 77.3606C57.367 78.5536 59.1488 78.4211 59.5691 77.1618L62.5612 68.3139C63.4185 65.7622 65.4524 63.7573 68.0411 62.8792L76.6308 59.9961C77.9252 59.5653 78.026 57.809 76.8157 57.2125H76.7989Z" fill="url(#paint1_linear_182_323)" shape-rendering="crispEdges"/>
<path d="M76.7989 57.2125C67.6713 52.8714 58.6614 49.8558 49.7691 48.3811C48.5756 48.1823 47.5334 49.2096 47.7351 50.4025C49.4161 59.8801 52.425 68.8606 56.7619 77.3606C57.367 78.5536 59.1488 78.4211 59.5691 77.1618L62.5612 68.3139C63.4185 65.7622 65.4524 63.7573 68.0411 62.8792L76.6308 59.9961C77.9252 59.5653 78.026 57.809 76.8157 57.2125H76.7989Z" stroke="black" stroke-opacity="0.1" shape-rendering="crispEdges"/>
</g>
</g>
<defs>
<filter id="filter0_ii_182_323" x="23.5" y="12.5166" width="55.665" height="70.9669" filterUnits="userSpaceOnUse" color-interpolation-filters="sRGB">
<feFlood flood-opacity="0" result="BackgroundImageFix"/>
<feBlend mode="normal" in="SourceGraphic" in2="BackgroundImageFix" result="shape"/>
<feColorMatrix in="SourceAlpha" type="matrix" values="0 0 0 0 0 0 0 0 0 0 0 0 0 0 0 0 0 0 127 0" result="hardAlpha"/>
<feOffset dy="1"/>
<feGaussianBlur stdDeviation="1.5"/>
<feComposite in2="hardAlpha" operator="arithmetic" k2="-1" k3="1"/>
<feColorMatrix type="matrix" values="0 0 0 0 1 0 0 0 0 1 0 0 0 0 1 0 0 0 0.95 0"/>
<feBlend mode="normal" in2="shape" result="effect1_innerShadow_182_323"/>
<feColorMatrix in="SourceAlpha" type="matrix" values="0 0 0 0 0 0 0 0 0 0 0 0 0 0 0 0 0 0 127 0" result="hardAlpha"/>
<feOffset dx="1" dy="-1"/>
<feGaussianBlur stdDeviation="0.5"/>
<feComposite in2="hardAlpha" operator="arithmetic" k2="-1" k3="1"/>
<feColorMatrix type="matrix" values="0 0 0 0 0 0 0 0 0 0 0 0 0 0 0 0 0 0 0.2 0"/>
<feBlend mode="normal" in2="effect1_innerShadow_182_323" result="effect2_innerShadow_182_323"/>
</filter>
<filter id="filter1_dd_182_323" x="-20.5" y="-6.4834" width="104.856" height="136.967" filterUnits="userSpaceOnUse" color-interpolation-filters="sRGB">
<feFlood flood-opacity="0" result="BackgroundImageFix"/>
<feColorMatrix in="SourceAlpha" type="matrix" values="0 0 0 0 0 0 0 0 0 0 0 0 0 0 0 0 0 0 127 0" result="hardAlpha"/>
<feOffset dx="-10" dy="14"/>
<feGaussianBlur stdDeviation="17"/>
<feComposite in2="hardAlpha" operator="out"/>
<feColorMatrix type="matrix" values="0 0 0 0 0.75118 0 0 0 0 0.85414 0 0 0 0 1 0 0 0 1 0"/>
<feBlend mode="normal" in2="BackgroundImageFix" result="effect1_dropShadow_182_323"/>
<feColorMatrix in="SourceAlpha" type="matrix" values="0 0 0 0 0 0 0 0 0 0 0 0 0 0 0 0 0 0 127 0" result="hardAlpha"/>
<feOffset dx="-2" dy="2"/>
<feGaussianBlur stdDeviation="6.5"/>
<feComposite in2="hardAlpha" operator="out"/>
<feColorMatrix type="matrix" values="0 0 0 0 0 0 0 0 0 0 0 0 0 0 0 0 0 0 0.1 0"/>
<feBlend mode="normal" in2="effect1_dropShadow_182_323" result="effect2_dropShadow_182_323"/>
<feBlend mode="normal" in="SourceGraphic" in2="effect2_dropShadow_182_323" result="shape"/>
</filter>
<filter id="filter2_dd_182_323" x="3.20996" y="27.8562" width="98.9551" height="98.8287" filterUnits="userSpaceOnUse" color-interpolation-filters="sRGB">
<feFlood flood-opacity="0" result="BackgroundImageFix"/>
<feColorMatrix in="SourceAlpha" type="matrix" values="0 0 0 0 0 0 0 0 0 0 0 0 0 0 0 0 0 0 127 0" result="hardAlpha"/>
<feOffset dx="-10" dy="14"/>
<feGaussianBlur stdDeviation="17"/>
<feComposite in2="hardAlpha" operator="out"/>
<feColorMatrix type="matrix" values="0 0 0 0 0.75118 0 0 0 0 0.85414 0 0 0 0 1 0 0 0 1 0"/>
<feBlend mode="normal" in2="BackgroundImageFix" result="effect1_dropShadow_182_323"/>
<feColorMatrix in="SourceAlpha" type="matrix" values="0 0 0 0 0 0 0 0 0 0 0 0 0 0 0 0 0 0 127 0" result="hardAlpha"/>
<feOffset dx="-2" dy="2"/>
<feGaussianBlur stdDeviation="6.5"/>
<feComposite in2="hardAlpha" operator="out"/>
<feColorMatrix type="matrix" values="0 0 0 0 0 0 0 0 0 0 0 0 0 0 0 0 0 0 0.1 0"/>
<feBlend mode="normal" in2="effect1_dropShadow_182_323" result="effect2_dropShadow_182_323"/>
<feBlend mode="normal" in="SourceGraphic" in2="effect2_dropShadow_182_323" result="shape"/>
</filter>
<linearGradient id="paint0_linear_182_323" x1="41.9284" y1="14.0166" x2="41.9284" y2="81.9835" gradientUnits="userSpaceOnUse">
<stop stop-color="#F5FAFE"/>
<stop offset="0.5" stop-color="#DEF0FE"/>
<stop offset="1" stop-color="#C8E7FC"/>
</linearGradient>
<linearGradient id="paint1_linear_182_323" x1="62.6878" y1="48.3563" x2="62.6878" y2="78.185" gradientUnits="userSpaceOnUse">
<stop stop-color="#F5FAFE"/>
<stop offset="0.5" stop-color="#DEF0FE"/>
<stop offset="1" stop-color="#C8E7FC"/>
</linearGradient>
</defs>
</svg>
