<svg width="27" height="33" viewBox="0 0 27 33" fill="none" xmlns="http://www.w3.org/2000/svg">
<path d="M12.3669 28.3285C12.1385 28.6099 11.8938 28.8833 11.7469 29.0361C11.6654 29.1165 11.5267 29.0361 11.5675 28.9316C11.6409 28.7305 11.7143 28.5295 11.7877 28.3204C12.0406 27.5726 12.2935 26.463 12.4403 25.7634C12.5138 25.4016 12.2935 25.0478 11.9346 24.9513C11.5512 24.8468 11.1514 25.0799 11.0699 25.4659C10.7272 26.9857 10.2786 28.3526 9.73202 29.4864C9.66676 29.6231 9.45466 29.5748 9.45466 29.4221V11.9571C10.2133 11.933 10.972 11.8606 11.7306 11.7561C11.8285 12.6647 11.8938 13.5894 11.9264 14.5302C11.9427 14.876 12.1956 15.1655 12.5464 15.2218H12.5627C13.0114 15.2941 13.4111 14.9484 13.3948 14.4981C13.354 13.509 13.2806 12.5039 13.1664 11.4908C13.8598 11.338 14.5532 11.145 15.2466 10.9199C15.7523 12.8256 15.8992 14.8358 15.9318 15.5836C15.9399 15.7605 16.0623 15.9133 16.2418 15.9535C16.3315 15.9776 16.4049 15.9937 16.4784 16.0178C16.9515 16.1545 17.4246 15.7846 17.4002 15.2941C17.3023 13.4045 17.0004 11.5953 16.5028 9.91474C16.5028 9.84237 16.4865 9.77 16.4539 9.69763C16.4376 9.66547 16.4212 9.62526 16.4049 9.5931C15.0671 5.25099 12.473 1.79339 9.07125 0.0887102C9.02231 0.0645874 8.97336 0.0404645 8.92441 0.0324236C8.85915 0.0163417 8.79389 0.00830078 8.72047 0.00830078C8.65521 0.00830078 8.58179 0.0163417 8.51653 0.0404645C8.46759 0.0565464 8.41864 0.0726283 8.3697 0.0967511C4.96798 1.79339 2.37386 5.25099 1.02786 9.5931C1.00338 9.62526 0.98707 9.66547 0.970754 9.70567C0.946282 9.77 0.929966 9.84237 0.929966 9.91474C0.334462 11.9491 0.0081576 14.1684 0 16.4842V16.5003C0 16.5807 0 16.653 0 16.7254C0.0326304 24.1954 3.24672 30.395 8.3697 32.9118C8.41864 32.9359 8.46759 32.952 8.51653 32.9681C8.58179 32.9842 8.64706 32.9922 8.71232 32.9922C8.77758 32.9922 8.851 32.9842 8.91626 32.9601C8.9652 32.944 9.01415 32.9279 9.05494 32.9038C10.4091 32.2364 11.6327 31.3197 12.6932 30.1779C12.8564 30.001 13.0195 29.8161 13.1664 29.6552C13.4845 29.2934 13.5253 28.7707 13.2643 28.3687C13.0603 28.0471 12.5953 28.0229 12.3506 28.3204L12.3669 28.3285ZM11.7388 4.01269C13.0114 5.45202 14.0392 7.26123 14.7571 9.31167C14.7979 9.42424 14.7326 9.54485 14.6266 9.57702C14.1534 9.7298 13.6803 9.85845 13.2072 9.97906C13.0929 10.0112 12.9706 9.93082 12.9543 9.81021C12.6524 7.77585 12.1956 5.81386 11.5512 4.11722C11.5104 4.00465 11.6572 3.92424 11.7388 4.01269ZM9.46282 3.58652C9.46282 3.44178 9.6586 3.40158 9.72386 3.53023C10.5559 5.27512 11.1596 7.56678 11.5348 10.0997C11.5512 10.2123 11.4696 10.3168 11.3554 10.3329C10.8007 10.4133 10.2378 10.4615 9.67491 10.4856C9.56071 10.4856 9.46282 10.4052 9.46282 10.2927V3.58652ZM2.67569 9.29559C3.3854 7.28535 4.38063 5.5083 5.62059 4.08506C5.71032 3.98052 5.88979 4.08506 5.84084 4.20567C5.22086 5.87014 4.78035 7.79193 4.47852 9.77804C4.46221 9.89866 4.33984 9.97906 4.22564 9.9469C3.7525 9.83433 3.28751 9.70567 2.81437 9.56094C2.70017 9.52877 2.6349 9.40012 2.67569 9.28754V9.29559ZM2.12913 11.1289C2.16176 11.0083 2.29229 10.9359 2.41465 10.9761C2.96937 11.145 3.52408 11.2978 4.07064 11.4264C4.17669 11.4506 4.25011 11.5551 4.24195 11.6596C4.10327 12.9783 4.02985 14.289 3.99722 15.5514C3.99722 15.672 3.89117 15.7685 3.76881 15.7685H1.72941C1.59889 15.7685 1.49284 15.664 1.501 15.5354C1.56626 13.9995 1.78651 12.52 2.12913 11.1289ZM2.07203 21.8957C1.75388 20.5449 1.54994 19.0653 1.49284 17.4411C1.49284 17.3285 1.58257 17.232 1.69678 17.232H3.79328C3.90749 17.232 3.99722 17.3204 3.99722 17.425C4.0217 18.6954 4.09511 20.0222 4.22564 21.3409C4.23379 21.4374 4.16853 21.5339 4.07064 21.558C3.49145 21.6947 2.91226 21.8555 2.33307 22.0405C2.21887 22.0807 2.0965 22.0163 2.06387 21.8957H2.07203ZM5.66953 29.012C4.44589 27.6611 3.36093 25.9082 2.60227 23.713C2.56149 23.6004 2.62675 23.4718 2.74095 23.4396C3.22225 23.2788 3.71171 23.1421 4.20116 23.0215C4.32353 22.9893 4.43773 23.0697 4.45405 23.1903C4.75588 25.2247 5.21271 27.1947 5.85716 28.8914C5.89794 29.0039 5.75111 29.0924 5.66953 29.0039V29.012ZM7.97813 29.3979C7.97813 29.5507 7.75788 29.607 7.69262 29.4623C6.85238 27.7093 6.25688 25.4016 5.88979 22.8526C5.88163 22.7722 5.93873 22.6918 6.02031 22.6757C6.61581 22.5873 7.21948 22.539 7.82314 22.5068C7.90471 22.5068 7.97813 22.5712 7.97813 22.6516V29.3979ZM7.97813 20.8343C7.97813 20.9469 7.8884 21.0434 7.76604 21.0514C7.14606 21.0756 6.52608 21.1318 5.91426 21.2203C5.7919 21.2364 5.67769 21.156 5.66953 21.0354C5.55533 19.8694 5.49006 18.6633 5.46559 17.4571C5.46559 17.3365 5.56348 17.232 5.68585 17.232H7.75788C7.88024 17.232 7.97813 17.3285 7.97813 17.4491V20.8343ZM7.97813 15.5514C7.97813 15.672 7.88024 15.7685 7.75788 15.7685H5.694C5.57164 15.7685 5.46559 15.664 5.47375 15.5434C5.49822 14.3292 5.57164 13.1231 5.68585 11.9571C5.694 11.8365 5.80821 11.7481 5.93057 11.7642C6.54239 11.8526 7.16237 11.9089 7.77419 11.9411C7.8884 11.9411 7.98629 12.0375 7.98629 12.1582V15.5514H7.97813ZM7.76604 10.4776C7.21132 10.4454 6.6566 10.3892 6.09373 10.3087C5.97952 10.2927 5.89794 10.1801 5.91426 10.0675C6.28135 7.56678 6.87686 5.29924 7.70077 3.5624C7.76603 3.4257 7.97813 3.47395 7.97813 3.62672V10.2685C7.97813 10.3811 7.88024 10.4776 7.76604 10.4696V10.4776Z" fill="#797979"/>
<path d="M25.623 20.9708C21.1935 18.8641 16.821 17.4006 12.5056 16.685C11.9264 16.5885 11.4207 17.087 11.5186 17.666C12.3343 22.2654 13.7945 26.6236 15.8992 30.7486C16.1929 31.3275 17.0576 31.2632 17.2615 30.6521L18.7136 26.3582C19.1296 25.1199 20.1167 24.147 21.3729 23.7208L25.5415 22.3217C26.1696 22.1126 26.2186 21.2603 25.6312 20.9708H25.623Z" fill="#797979"/>
</svg>
