<svg width="24" height="25" viewBox="0 0 24 25" fill="none" xmlns="http://www.w3.org/2000/svg">
<g clip-path="url(#clip0_180_2618)">
<path d="M12 0.5C5.40894 0.5 0 5.90894 0 12.5C0 18.1245 3.94666 23.2336 9.1875 24.5V20.5299C8.66821 20.6436 8.19031 20.6469 7.66168 20.4911C6.95251 20.2818 6.37628 19.8094 5.94855 19.0891C5.6759 18.6291 5.19269 18.1303 4.6886 18.1669L4.565 16.7662C5.65503 16.6728 6.59802 17.4303 7.15778 18.3707C7.40643 18.7889 7.69263 19.0341 8.05994 19.1425C8.41498 19.2471 8.7962 19.1969 9.24042 19.04C9.35193 18.1506 9.75934 17.8177 10.0671 17.349V17.3483C6.94153 16.8821 5.69586 15.2239 5.20148 13.915C4.54633 12.1772 4.89789 10.0061 6.0564 8.63409C6.07892 8.60736 6.11957 8.53741 6.10382 8.48853C5.57263 6.88397 6.21991 5.55664 6.24371 5.41583C6.85675 5.59711 6.95636 5.23346 8.90662 6.41833L9.24371 6.62085C9.3847 6.7049 9.34039 6.65692 9.48138 6.6463C10.2957 6.42511 11.1541 6.30298 11.9998 6.29199C12.852 6.30298 13.7049 6.42511 14.5529 6.65527L14.662 6.66626C14.6525 6.66479 14.6917 6.6593 14.7574 6.62012C17.1936 5.14447 17.1061 5.62677 17.7594 5.41437C17.783 5.55536 18.4217 6.9043 17.8962 8.48853C17.8253 8.70679 20.0083 10.7057 18.7983 13.9145C18.304 15.2239 17.0585 16.8821 13.9329 17.3483V17.349C14.3335 17.9597 14.8149 18.2845 14.8123 19.5443V24.5C20.0533 23.2336 23.9998 18.1245 23.9998 12.5C24 5.90894 18.5911 0.5 12 0.5Z" fill="black"/>
</g>
<defs>
<clipPath id="clip0_180_2618">
<rect width="24" height="24" fill="white" transform="translate(0 0.5)"/>
</clipPath>
</defs>
</svg>
