<svg width="16" height="17" viewBox="0 0 16 17" fill="none" xmlns="http://www.w3.org/2000/svg">
<path d="M6.66699 9.16672C6.95329 9.54948 7.31856 9.86618 7.73803 10.0954C8.15749 10.3245 8.62133 10.4608 9.09809 10.4949C9.57485 10.5291 10.0534 10.4603 10.5012 10.2932C10.9491 10.1262 11.3557 9.86477 11.6937 9.52672L13.6937 7.52672C14.3009 6.89805 14.6368 6.05604 14.6292 5.18205C14.6216 4.30806 14.2711 3.47202 13.6531 2.854C13.035 2.23597 12.199 1.88541 11.325 1.87781C10.451 1.87022 9.609 2.2062 8.98033 2.81339L7.83366 3.95339" stroke="#222222" stroke-linecap="round" stroke-linejoin="round"/>
<path d="M9.33347 7.83332C9.04716 7.45057 8.68189 7.13387 8.26243 6.90469C7.84297 6.67552 7.37913 6.53924 6.90237 6.5051C6.4256 6.47095 5.94707 6.53974 5.49924 6.7068C5.0514 6.87386 4.64472 7.13527 4.3068 7.47332L2.3068 9.47332C1.69961 10.102 1.36363 10.944 1.37122 11.818C1.37881 12.692 1.72938 13.528 2.3474 14.146C2.96543 14.7641 3.80147 15.1146 4.67546 15.1222C5.54945 15.1298 6.39146 14.7938 7.02013 14.1867L8.16013 13.0467" stroke="#222222" stroke-linecap="round" stroke-linejoin="round"/>
</svg>
