<svg width="16" height="17" viewBox="0 0 16 17" fill="none" xmlns="http://www.w3.org/2000/svg">
<g clip-path="url(#clip0_180_2287)">
<path d="M8 0.5C3.58187 0.5 0 4.08187 0 8.5C0 12.9181 3.58187 16.5 8 16.5C12.4181 16.5 16 12.9181 16 8.5C16 4.08187 12.4181 0.5 8 0.5Z" fill="black"/>
<path d="M8.87531 7.77598L12.3 3.79504H11.4885L8.5148 7.25164L6.13974 3.79504H3.40039L6.99194 9.02202L3.40039 13.1967H4.21198L7.35226 9.54637L9.86049 13.1967H12.5998L8.8751 7.77598H8.87531ZM4.5044 4.406H5.75096L11.4888 12.6135H10.2423L4.5044 4.406Z" fill="white"/>
</g>
<defs>
<clipPath id="clip0_180_2287">
<rect width="16" height="16" fill="white" transform="translate(0 0.5)"/>
</clipPath>
</defs>
</svg>
