<svg width="16" height="17" viewBox="0 0 16 17" fill="none" xmlns="http://www.w3.org/2000/svg">
<path d="M8 5.83337C11.3137 5.83337 14 4.93794 14 3.83337C14 2.7288 11.3137 1.83337 8 1.83337C4.68629 1.83337 2 2.7288 2 3.83337C2 4.93794 4.68629 5.83337 8 5.83337Z" stroke="#797979" stroke-linecap="round" stroke-linejoin="round"/>
<path d="M2 3.83337V13.1667C2 13.6971 2.63214 14.2058 3.75736 14.5809C4.88258 14.956 6.4087 15.1667 8 15.1667C9.5913 15.1667 11.1174 14.956 12.2426 14.5809C13.3679 14.2058 14 13.6971 14 13.1667V3.83337" stroke="#797979" stroke-linecap="round" stroke-linejoin="round"/>
<path d="M2 8.5C2 9.03043 2.63214 9.53914 3.75736 9.91421C4.88258 10.2893 6.4087 10.5 8 10.5C9.5913 10.5 11.1174 10.2893 12.2426 9.91421C13.3679 9.53914 14 9.03043 14 8.5" stroke="#797979" stroke-linecap="round" stroke-linejoin="round"/>
</svg>
